<mxfile host="app.diagrams.net" modified="2020-07-26T11:32:50.590Z" agent="5.0 (Windows NT 6.1; WOW64) AppleWebKit/537.36 (KHTML, like Gecko) Chrome/80.0.3987.163 Safari/537.36" etag="Lsf-ikNNqSp67w2P-inh" version="13.5.3" type="github">
  <diagram id="kgpKYQtTHZ0yAKxKKP6v" name="Page-1">
    <mxGraphModel dx="1422" dy="834" grid="1" gridSize="10" guides="1" tooltips="1" connect="1" arrows="1" fold="1" page="1" pageScale="1" pageWidth="850" pageHeight="1100" math="0" shadow="0">
      <root>
        <mxCell id="0" />
        <mxCell id="1" parent="0" />
        <mxCell id="3nuBFxr9cyL0pnOWT2aG-1" value="TradeMessageListener" style="shape=umlLifeline;perimeter=lifelinePerimeter;container=1;collapsible=0;recursiveResize=0;rounded=0;shadow=0;strokeWidth=1;" parent="1" vertex="1">
          <mxGeometry x="120" y="80" width="100" height="300" as="geometry" />
        </mxCell>
        <mxCell id="3nuBFxr9cyL0pnOWT2aG-2" value="" style="points=[];perimeter=orthogonalPerimeter;rounded=0;shadow=0;strokeWidth=1;" parent="3nuBFxr9cyL0pnOWT2aG-1" vertex="1">
          <mxGeometry x="45" y="70" width="10" height="190" as="geometry" />
        </mxCell>
        <mxCell id="3nuBFxr9cyL0pnOWT2aG-3" value="consume" style="verticalAlign=bottom;startArrow=oval;endArrow=block;startSize=8;shadow=0;strokeWidth=1;" parent="3nuBFxr9cyL0pnOWT2aG-1" target="3nuBFxr9cyL0pnOWT2aG-2" edge="1">
          <mxGeometry relative="1" as="geometry">
            <mxPoint x="-15" y="70" as="sourcePoint" />
          </mxGeometry>
        </mxCell>
        <mxCell id="3nuBFxr9cyL0pnOWT2aG-5" value="TradeOrderExcuter" style="shape=umlLifeline;perimeter=lifelinePerimeter;container=1;collapsible=0;recursiveResize=0;rounded=0;shadow=0;strokeWidth=1;" parent="1" vertex="1">
          <mxGeometry x="300" y="80" width="100" height="510" as="geometry" />
        </mxCell>
        <mxCell id="3nuBFxr9cyL0pnOWT2aG-6" value="" style="points=[];perimeter=orthogonalPerimeter;rounded=0;shadow=0;strokeWidth=1;" parent="3nuBFxr9cyL0pnOWT2aG-5" vertex="1">
          <mxGeometry x="45" y="80" width="10" height="100" as="geometry" />
        </mxCell>
        <mxCell id="mZY20XbQK8nZTIRrY8v0-7" value="" style="points=[];perimeter=orthogonalPerimeter;rounded=0;shadow=0;strokeWidth=1;" vertex="1" parent="3nuBFxr9cyL0pnOWT2aG-5">
          <mxGeometry x="45" y="200" width="10" height="250" as="geometry" />
        </mxCell>
        <mxCell id="3nuBFxr9cyL0pnOWT2aG-8" value="excute" style="verticalAlign=bottom;endArrow=block;entryX=0;entryY=0;shadow=0;strokeWidth=1;" parent="1" source="3nuBFxr9cyL0pnOWT2aG-2" target="3nuBFxr9cyL0pnOWT2aG-6" edge="1">
          <mxGeometry relative="1" as="geometry">
            <mxPoint x="275" y="160" as="sourcePoint" />
          </mxGeometry>
        </mxCell>
        <mxCell id="mZY20XbQK8nZTIRrY8v0-1" value="TradeConcurrencyControl" style="shape=umlLifeline;perimeter=lifelinePerimeter;container=1;collapsible=0;recursiveResize=0;rounded=0;shadow=0;strokeWidth=1;" vertex="1" parent="1">
          <mxGeometry x="440" y="80" width="100" height="170" as="geometry" />
        </mxCell>
        <mxCell id="mZY20XbQK8nZTIRrY8v0-2" value="根据orderId在redis加锁" style="points=[];perimeter=orthogonalPerimeter;rounded=0;shadow=0;strokeWidth=1;" vertex="1" parent="mZY20XbQK8nZTIRrY8v0-1">
          <mxGeometry x="45" y="80" width="10" height="70" as="geometry" />
        </mxCell>
        <mxCell id="mZY20XbQK8nZTIRrY8v0-3" value="excuterControl" style="verticalAlign=bottom;endArrow=block;shadow=0;strokeWidth=1;" edge="1" parent="1">
          <mxGeometry x="0.0769" relative="1" as="geometry">
            <mxPoint x="360" y="177.0000000000001" as="sourcePoint" />
            <mxPoint x="490" y="177" as="targetPoint" />
            <mxPoint as="offset" />
          </mxGeometry>
        </mxCell>
        <mxCell id="mZY20XbQK8nZTIRrY8v0-4" value="" style="verticalAlign=bottom;endArrow=block;shadow=0;strokeWidth=1;" edge="1" parent="1" target="3nuBFxr9cyL0pnOWT2aG-5">
          <mxGeometry x="0.0769" relative="1" as="geometry">
            <mxPoint x="480" y="210.0000000000001" as="sourcePoint" />
            <mxPoint x="610" y="210" as="targetPoint" />
            <mxPoint as="offset" />
          </mxGeometry>
        </mxCell>
        <mxCell id="mZY20XbQK8nZTIRrY8v0-5" value="&lt;pre style=&quot;background-color: rgb(249 , 249 , 243) ; color: rgb(84 , 84 , 84) ; font-family: &amp;#34;source code pro semibold&amp;#34;&quot;&gt;&lt;font style=&quot;font-size: 11px&quot;&gt;process&lt;/font&gt;&lt;/pre&gt;&lt;div&gt;&lt;/div&gt;" style="endArrow=classic;html=1;entryX=1.1;entryY=0.645;entryDx=0;entryDy=0;entryPerimeter=0;rounded=0;align=left;" edge="1" parent="1">
          <mxGeometry x="-0.0112" y="12" width="50" height="50" relative="1" as="geometry">
            <mxPoint x="354" y="250" as="sourcePoint" />
            <mxPoint x="354" y="290.95000000000005" as="targetPoint" />
            <Array as="points">
              <mxPoint x="378" y="250" />
              <mxPoint x="378" y="291" />
            </Array>
            <mxPoint as="offset" />
          </mxGeometry>
        </mxCell>
        <mxCell id="mZY20XbQK8nZTIRrY8v0-8" value="ChannelTradeServiceInner" style="shape=umlLifeline;perimeter=lifelinePerimeter;container=1;collapsible=0;recursiveResize=0;rounded=0;shadow=0;strokeWidth=1;" vertex="1" parent="1">
          <mxGeometry x="450" y="315" width="100" height="310" as="geometry" />
        </mxCell>
        <mxCell id="mZY20XbQK8nZTIRrY8v0-9" value="查询结果" style="points=[];perimeter=orthogonalPerimeter;rounded=0;shadow=0;strokeWidth=1;" vertex="1" parent="mZY20XbQK8nZTIRrY8v0-8">
          <mxGeometry x="45" y="50" width="10" height="70" as="geometry" />
        </mxCell>
        <mxCell id="mZY20XbQK8nZTIRrY8v0-10" value="&lt;pre style=&quot;background-color: rgb(249 , 249 , 243) ; color: rgb(84 , 84 , 84) ; font-family: &amp;#34;source code pro semibold&amp;#34;&quot;&gt;&lt;font style=&quot;font-size: 11px&quot;&gt;orderQuery&lt;/font&gt;&lt;/pre&gt;" style="endArrow=classic;html=1;" edge="1" parent="1">
          <mxGeometry width="50" height="50" relative="1" as="geometry">
            <mxPoint x="355" y="373" as="sourcePoint" />
            <mxPoint x="499.5" y="373" as="targetPoint" />
            <Array as="points">
              <mxPoint x="400" y="373" />
              <mxPoint x="470" y="373" />
            </Array>
          </mxGeometry>
        </mxCell>
        <mxCell id="mZY20XbQK8nZTIRrY8v0-12" value="" style="verticalAlign=bottom;endArrow=block;shadow=0;strokeWidth=1;" edge="1" parent="1">
          <mxGeometry x="0.0769" relative="1" as="geometry">
            <mxPoint x="499.5" y="420" as="sourcePoint" />
            <mxPoint x="350" y="420" as="targetPoint" />
            <mxPoint as="offset" />
          </mxGeometry>
        </mxCell>
        <mxCell id="mZY20XbQK8nZTIRrY8v0-13" value="ChannelTradeOrderService" style="shape=umlLifeline;perimeter=lifelinePerimeter;container=1;collapsible=0;recursiveResize=0;rounded=0;shadow=0;strokeWidth=1;" vertex="1" parent="1">
          <mxGeometry x="600" y="80" width="100" height="880" as="geometry" />
        </mxCell>
        <mxCell id="mZY20XbQK8nZTIRrY8v0-15" value="更新交易单状态" style="points=[];perimeter=orthogonalPerimeter;rounded=0;shadow=0;strokeWidth=1;" vertex="1" parent="1">
          <mxGeometry x="640" y="460" width="10" height="70" as="geometry" />
        </mxCell>
        <mxCell id="mZY20XbQK8nZTIRrY8v0-16" value="&lt;pre style=&quot;background-color: rgb(249 , 249 , 243) ; color: rgb(84 , 84 , 84) ; font-family: &amp;#34;source code pro semibold&amp;#34;&quot;&gt;&lt;font style=&quot;font-size: 11px&quot;&gt;orderQuery&lt;/font&gt;&lt;/pre&gt;" style="endArrow=classic;html=1;" edge="1" parent="1" target="mZY20XbQK8nZTIRrY8v0-13">
          <mxGeometry width="50" height="50" relative="1" as="geometry">
            <mxPoint x="353" y="469.5" as="sourcePoint" />
            <mxPoint x="497.5" y="469.5" as="targetPoint" />
            <Array as="points">
              <mxPoint x="398" y="469.5" />
              <mxPoint x="468" y="469.5" />
            </Array>
          </mxGeometry>
        </mxCell>
        <mxCell id="mZY20XbQK8nZTIRrY8v0-17" value="" style="verticalAlign=bottom;endArrow=block;shadow=0;strokeWidth=1;" edge="1" parent="1">
          <mxGeometry x="0.0769" relative="1" as="geometry">
            <mxPoint x="509.5" y="510" as="sourcePoint" />
            <mxPoint x="360" y="510" as="targetPoint" />
            <mxPoint as="offset" />
          </mxGeometry>
        </mxCell>
        <mxCell id="mZY20XbQK8nZTIRrY8v0-18" value="" style="verticalAlign=bottom;endArrow=block;shadow=0;strokeWidth=1;exitX=-0.1;exitY=0.729;exitDx=0;exitDy=0;exitPerimeter=0;" edge="1" parent="1" source="mZY20XbQK8nZTIRrY8v0-15">
          <mxGeometry x="0.0769" relative="1" as="geometry">
            <mxPoint x="509.5" y="510" as="sourcePoint" />
            <mxPoint x="360" y="510" as="targetPoint" />
            <mxPoint as="offset" />
          </mxGeometry>
        </mxCell>
      </root>
    </mxGraphModel>
  </diagram>
</mxfile>
